<svg width="191" height="27" viewBox="0 0 191 27" fill="none" xmlns="http://www.w3.org/2000/svg">
<path d="M40.9331 11.9646V18.5214C40.5997 18.7218 40.2215 18.8971 39.7984 19.0474C39.3753 19.1977 38.9329 19.323 38.4713 19.4231C38.0227 19.536 37.5611 19.6174 37.0866 19.6674C36.625 19.7177 36.1889 19.7425 35.7788 19.7425C34.6248 19.7425 33.5925 19.5547 32.6824 19.1789C31.7847 18.8032 31.0219 18.2959 30.3936 17.6572C29.7781 17.0184 29.3038 16.2795 28.9704 15.4403C28.6498 14.5886 28.4897 13.6931 28.4897 12.7537C28.4897 11.7642 28.6628 10.8436 29.0089 9.99195C29.368 9.14025 29.8551 8.40128 30.4706 7.77504C31.0989 7.1488 31.849 6.66033 32.7209 6.30964C33.5925 5.94641 34.5478 5.76481 35.5864 5.76481C36.8429 5.76481 37.8688 5.92136 38.6637 6.23448C39.4584 6.53508 40.1254 6.95466 40.6637 7.49322L39.356 8.8647C38.7919 8.33866 38.1958 7.97545 37.5673 7.77504C36.939 7.56212 36.2789 7.45565 35.5864 7.45565C34.8042 7.45565 34.0992 7.59971 33.471 7.88777C32.8424 8.16332 32.3039 8.53907 31.8553 9.015C31.4065 9.49094 31.0604 10.0546 30.8167 10.7059C30.5731 11.3446 30.4512 12.0272 30.4512 12.7537C30.4512 13.5052 30.5861 14.2065 30.8552 14.8579C31.1244 15.4966 31.4962 16.054 31.9708 16.5299C32.4451 17.0058 33.003 17.3816 33.644 17.6572C34.285 17.9202 34.9839 18.0517 35.7403 18.0517C36.3941 18.0517 37.0096 17.9953 37.5866 17.8826C38.1764 17.7573 38.6765 17.582 39.0868 17.3566V13.6555H36.0673V11.9646H40.9331ZM45.1704 15.5718C45.1704 15.9601 45.2537 16.3171 45.4204 16.6427C45.5998 16.9558 45.8307 17.2251 46.1129 17.4505C46.3948 17.676 46.7218 17.8513 47.0936 17.9766C47.4655 18.1019 47.8501 18.1644 48.2477 18.1644C48.7862 18.1644 49.2542 18.0455 49.6515 17.8075C50.0489 17.557 50.4143 17.2313 50.748 16.8305L52.0557 17.8075C51.0941 19.0224 49.7479 19.6298 48.0168 19.6298C47.2988 19.6298 46.6448 19.5109 46.055 19.2729C45.4782 19.0349 44.9846 18.7093 44.5742 18.2959C44.1766 17.87 43.869 17.3754 43.6511 16.8118C43.4329 16.2355 43.3241 15.6156 43.3241 14.9518C43.3241 14.288 43.4395 13.6743 43.6702 13.1107C43.9138 12.5344 44.2408 12.0398 44.6512 11.6264C45.0743 11.2005 45.5743 10.8687 46.1514 10.6307C46.7284 10.3927 47.3564 10.2737 48.0361 10.2737C48.8438 10.2737 49.5233 10.4115 50.0749 10.6871C50.6389 10.9627 51.1005 11.3258 51.4596 11.7767C51.8184 12.2151 52.0748 12.7161 52.2288 13.2797C52.3955 13.8308 52.4788 14.3944 52.4788 14.9706V15.5718H45.1704ZM50.6325 14.2191C50.6195 13.8434 50.5555 13.499 50.4401 13.1858C50.3374 12.8726 50.1773 12.6034 49.9594 12.3779C49.7412 12.1399 49.4657 11.9584 49.1323 11.8331C48.8117 11.6954 48.4335 11.6264 47.9976 11.6264C47.5746 11.6264 47.1833 11.7078 46.8245 11.8707C46.4784 12.021 46.1832 12.2214 45.9398 12.4719C45.6962 12.7223 45.5037 13.0041 45.3628 13.3173C45.2346 13.6179 45.1704 13.9185 45.1704 14.2191H50.6325ZM55.9535 14.9518C55.9535 15.4027 56.0241 15.8222 56.165 16.2105C56.306 16.5863 56.5048 16.9119 56.7612 17.1875C57.0176 17.4505 57.3318 17.6634 57.7034 17.8262C58.0753 17.9765 58.492 18.0517 58.9536 18.0517C59.4151 18.0517 59.8321 17.9765 60.2037 17.8262C60.5756 17.6634 60.8898 17.4505 61.1462 17.1875C61.4026 16.9119 61.6014 16.5863 61.7424 16.2105C61.8833 15.8222 61.9539 15.4027 61.9539 14.9518C61.9539 14.5009 61.8833 14.0876 61.7424 13.7118C61.6014 13.3235 61.4026 12.9979 61.1462 12.7349C60.8898 12.4593 60.5756 12.2464 60.2037 12.0961C59.8321 11.9332 59.4151 11.8519 58.9536 11.8519C58.492 11.8519 58.0753 11.9332 57.7034 12.0961C57.3318 12.2464 57.0176 12.4593 56.7612 12.7349C56.5048 12.9979 56.306 13.3235 56.165 13.7118C56.0241 14.0876 55.9535 14.5009 55.9535 14.9518ZM54.1069 14.9518C54.1069 14.3005 54.2288 13.6931 54.4724 13.1294C54.7288 12.5658 55.0749 12.0711 55.511 11.6452C55.9471 11.2193 56.4597 10.8875 57.0497 10.6495C57.6395 10.3991 58.2741 10.2737 58.9536 10.2737C59.6331 10.2737 60.2677 10.3991 60.8577 10.6495C61.4475 10.8875 61.9603 11.2193 62.3964 11.6452C62.8322 12.0711 63.172 12.5658 63.4156 13.1294C63.672 13.6931 63.8002 14.3005 63.8002 14.9518C63.8002 15.6031 63.672 16.2168 63.4156 16.793C63.172 17.3566 62.8322 17.8513 62.3964 18.2772C61.9603 18.6905 61.4475 19.0224 60.8577 19.2729C60.2677 19.5109 59.6331 19.6298 58.9536 19.6298C58.2741 19.6298 57.6395 19.5109 57.0497 19.2729C56.4597 19.0224 55.9471 18.6905 55.511 18.2772C55.0749 17.8513 54.7288 17.3566 54.4724 16.793C54.2288 16.2168 54.1069 15.6031 54.1069 14.9518ZM66.8151 16.6239C67.1482 17.1123 67.5716 17.4755 68.0844 17.7135C68.6099 17.939 69.1485 18.0517 69.7 18.0517C70.0076 18.0517 70.3216 18.0079 70.6423 17.9202C70.9626 17.8201 71.2512 17.676 71.5078 17.4881C71.777 17.3002 71.9949 17.0686 72.1618 16.793C72.3282 16.5174 72.4118 16.198 72.4118 15.8348C72.4118 15.3213 72.2449 14.933 71.9118 14.67C71.5781 14.3944 71.1617 14.1689 70.6616 13.9937C70.1743 13.8058 69.6358 13.6305 69.046 13.4676C68.469 13.2923 67.9304 13.0543 67.4304 12.7537C66.943 12.4531 66.533 12.0523 66.1996 11.5513C65.8662 11.0378 65.6995 10.3489 65.6995 9.48469C65.6995 9.09641 65.7829 8.6831 65.9496 8.24473C66.129 7.80637 66.4048 7.40554 66.7766 7.04234C67.1485 6.67911 67.6228 6.37853 68.1998 6.14055C68.7896 5.89006 69.4948 5.76481 70.3153 5.76481C71.059 5.76481 71.7706 5.865 72.4501 6.06539C73.1296 6.2658 73.726 6.67284 74.2388 7.28657L72.7386 8.62048C72.5079 8.26976 72.1809 7.98797 71.7578 7.77504C71.3347 7.56212 70.8538 7.45565 70.3153 7.45565C69.8025 7.45565 69.373 7.52455 69.0269 7.66231C68.6933 7.78758 68.4241 7.95667 68.2189 8.16957C68.0138 8.36998 67.8662 8.58915 67.7767 8.82713C67.6998 9.06511 67.6613 9.28428 67.6613 9.48469C67.6613 10.0483 67.828 10.4804 68.1613 10.781C68.4947 11.0816 68.9048 11.3258 69.3921 11.5137C69.8922 11.7016 70.4307 11.8707 71.0077 12.021C71.5975 12.1713 72.1358 12.3841 72.6234 12.6597C73.1234 12.9228 73.5399 13.2859 73.8733 13.7494C74.2066 14.2003 74.3733 14.8265 74.3733 15.6281C74.3733 16.2669 74.2451 16.8431 73.9887 17.3566C73.7451 17.87 73.4117 18.3022 72.9886 18.6529C72.5655 19.0037 72.0655 19.2729 71.4884 19.4606C70.9117 19.6487 70.2961 19.7425 69.6421 19.7425C68.7702 19.7425 67.9432 19.5923 67.1612 19.2917C66.379 18.9911 65.7571 18.5276 65.2956 17.9014L66.8151 16.6239ZM76.6555 10.4992H78.3865V11.7767H78.425C78.7584 11.3009 79.2136 10.9313 79.7904 10.6683C80.3804 10.4053 80.9829 10.2737 81.5984 10.2737C82.3037 10.2737 82.9383 10.3927 83.5023 10.6307C84.0794 10.8687 84.5664 11.2005 84.964 11.6264C85.3744 12.0523 85.6886 12.5532 85.9065 13.1294C86.1245 13.6931 86.2333 14.3005 86.2333 14.9518C86.2333 15.6156 86.1245 16.2355 85.9065 16.8118C85.6886 17.3754 85.3744 17.87 84.964 18.2959C84.5664 18.7093 84.0794 19.0349 83.5023 19.2729C82.9383 19.5109 82.3037 19.6298 81.5984 19.6298C80.9444 19.6298 80.3289 19.4985 79.7519 19.2353C79.1751 18.9597 78.7327 18.5903 78.425 18.1269H78.3865V24.7024H76.6555V10.4992ZM81.3869 11.8519C80.9253 11.8519 80.5084 11.9332 80.1367 12.0961C79.7649 12.2464 79.4506 12.4593 79.1942 12.7349C78.9378 12.9979 78.739 13.3235 78.5981 13.7118C78.4571 14.0876 78.3865 14.5009 78.3865 14.9518C78.3865 15.4027 78.4571 15.8222 78.5981 16.2105C78.739 16.5863 78.9378 16.9119 79.1942 17.1875C79.4506 17.4505 79.7649 17.6634 80.1367 17.8262C80.5084 17.9765 80.9253 18.0517 81.3869 18.0517C81.8485 18.0517 82.2652 17.9765 82.6368 17.8262C83.0086 17.6634 83.3229 17.4505 83.5793 17.1875C83.8357 16.9119 84.0345 16.5863 84.1755 16.2105C84.3164 15.8222 84.387 15.4027 84.387 14.9518C84.387 14.5009 84.3164 14.0876 84.1755 13.7118C84.0345 13.3235 83.8357 12.9979 83.5793 12.7349C83.3229 12.4593 83.0086 12.2464 82.6368 12.0961C82.2652 11.9332 81.8485 11.8519 81.3869 11.8519ZM88.4514 11.5889C88.9388 11.1506 89.5028 10.8248 90.144 10.6119C90.785 10.3865 91.426 10.2737 92.0673 10.2737C92.7338 10.2737 93.3045 10.3551 93.779 10.518C94.2661 10.6809 94.6637 10.8999 94.9713 11.1756C95.279 11.4512 95.5032 11.7705 95.6444 12.1337C95.7984 12.4844 95.8754 12.8538 95.8754 13.2421V17.7887C95.8754 18.1019 95.8817 18.3899 95.8945 18.6529C95.9072 18.9159 95.9263 19.1664 95.9521 19.4044H94.4137C94.3752 18.9535 94.3558 18.5026 94.3558 18.0517H94.3173C93.9327 18.6279 93.4775 19.0349 92.952 19.2729C92.4262 19.5109 91.8173 19.6298 91.1248 19.6298C90.7017 19.6298 90.2977 19.5736 89.9131 19.4606C89.5285 19.3479 89.1888 19.1789 88.8939 18.9535C88.6118 18.7281 88.3872 18.4525 88.2208 18.1269C88.0538 17.7887 87.9707 17.4004 87.9707 16.9621C87.9707 16.3859 88.0987 15.9037 88.3554 15.5154C88.6245 15.1271 88.9834 14.8141 89.4324 14.5761C89.894 14.3256 90.4259 14.1502 91.0287 14.05C91.644 13.9373 92.298 13.8809 92.9905 13.8809H94.2597V13.5052C94.2597 13.2797 94.2146 13.0543 94.1252 12.8288C94.0352 12.6034 93.9006 12.4029 93.7212 12.2277C93.5415 12.0398 93.3172 11.8957 93.048 11.7955C92.7789 11.6828 92.4583 11.6264 92.0864 11.6264C91.7531 11.6264 91.4582 11.6578 91.2018 11.7204C90.9581 11.7829 90.7336 11.8645 90.5286 11.9646C90.3235 12.0523 90.1374 12.1587 89.971 12.284C89.804 12.4093 89.644 12.5282 89.49 12.641L88.4514 11.5889ZM93.3366 15.1209C92.9262 15.1209 92.5031 15.1459 92.0673 15.196C91.644 15.2336 91.253 15.315 90.8941 15.4403C90.5478 15.5656 90.2592 15.7409 90.0286 15.9663C89.8104 16.1918 89.7016 16.4798 89.7016 16.8305C89.7016 17.344 89.8746 17.7135 90.2208 17.939C90.5799 18.1644 91.0606 18.2772 91.6633 18.2772C92.1377 18.2772 92.5416 18.202 92.875 18.0517C93.2084 17.8888 93.4775 17.6822 93.6827 17.4317C93.8879 17.1813 94.0352 16.9057 94.1252 16.6051C94.2146 16.2919 94.2597 15.9851 94.2597 15.6845V15.1209H93.3366ZM103.271 11.9646H100.79V16.0039C100.79 16.2543 100.797 16.5049 100.809 16.7554C100.822 16.9934 100.867 17.2125 100.944 17.4129C101.034 17.6008 101.162 17.7573 101.329 17.8826C101.508 17.9953 101.765 18.0517 102.098 18.0517C102.303 18.0517 102.515 18.0329 102.733 17.9953C102.951 17.9578 103.149 17.8888 103.329 17.7887V19.3293C103.124 19.442 102.855 19.5171 102.521 19.5547C102.201 19.6049 101.951 19.6298 101.771 19.6298C101.104 19.6298 100.585 19.542 100.213 19.3668C99.8541 19.1789 99.585 18.9409 99.4053 18.6529C99.2389 18.3649 99.1362 18.0455 99.0977 17.6948C99.0722 17.3316 99.0592 16.9683 99.0592 16.6051V11.9646H97.059V10.4992H99.0592V8.00048H100.79V10.4992H103.271V11.9646ZM105.639 10.4992H107.37V19.4044H105.639V10.4992ZM105.235 7.30535C105.235 6.96718 105.357 6.67911 105.601 6.44113C105.857 6.19066 106.158 6.06539 106.505 6.06539C106.851 6.06539 107.146 6.19066 107.389 6.44113C107.646 6.67911 107.774 6.96718 107.774 7.30535C107.774 7.64352 107.646 7.93788 107.389 8.18835C107.146 8.42633 106.851 8.54531 106.505 8.54531C106.158 8.54531 105.857 8.42633 105.601 8.18835C105.357 7.93788 105.235 7.64352 105.235 7.30535ZM110.163 11.5889C110.65 11.1506 111.215 10.8248 111.856 10.6119C112.497 10.3865 113.138 10.2737 113.779 10.2737C114.446 10.2737 115.016 10.3551 115.491 10.518C115.978 10.6809 116.375 10.8999 116.683 11.1756C116.991 11.4512 117.215 11.7705 117.356 12.1337C117.51 12.4844 117.587 12.8538 117.587 13.2421V17.7887C117.587 18.1019 117.593 18.3899 117.606 18.6529C117.619 18.9159 117.638 19.1664 117.664 19.4044H116.125C116.087 18.9535 116.068 18.5026 116.068 18.0517H116.029C115.644 18.6279 115.189 19.0349 114.664 19.2729C114.138 19.5109 113.529 19.6298 112.837 19.6298C112.413 19.6298 112.01 19.5736 111.625 19.4606C111.24 19.3479 110.9 19.1789 110.606 18.9535C110.324 18.7281 110.099 18.4525 109.933 18.1269C109.766 17.7887 109.683 17.4004 109.683 16.9621C109.683 16.3859 109.81 15.9037 110.067 15.5154C110.336 15.1271 110.695 14.8141 111.144 14.5761C111.606 14.3256 112.138 14.1502 112.74 14.05C113.356 13.9373 114.01 13.8809 114.702 13.8809H115.971V13.5052C115.971 13.2797 115.926 13.0543 115.837 12.8288C115.747 12.6034 115.612 12.4029 115.433 12.2277C115.253 12.0398 115.029 11.8957 114.76 11.7955C114.49 11.6828 114.17 11.6264 113.798 11.6264C113.465 11.6264 113.17 11.6578 112.914 11.7204C112.67 11.7829 112.445 11.8645 112.24 11.9646C112.035 12.0523 111.849 12.1587 111.683 12.284C111.516 12.4093 111.356 12.5282 111.202 12.641L110.163 11.5889ZM115.048 15.1209C114.638 15.1209 114.215 15.1459 113.779 15.196C113.356 15.2336 112.965 15.315 112.606 15.4403C112.26 15.5656 111.971 15.7409 111.74 15.9663C111.522 16.1918 111.413 16.4798 111.413 16.8305C111.413 17.344 111.586 17.7135 111.933 17.939C112.292 18.1644 112.772 18.2772 113.375 18.2772C113.849 18.2772 114.253 18.202 114.587 18.0517C114.92 17.8888 115.189 17.6822 115.394 17.4317C115.6 17.1813 115.747 16.9057 115.837 16.6051C115.926 16.2919 115.971 15.9851 115.971 15.6845V15.1209H115.048ZM120.232 5.20117H121.963V19.4044H120.232V5.20117ZM125.161 6.10298H127.007V11.6264H134.065V6.10298H135.912V19.4044H134.065V13.3173H127.007V19.4044H125.161V6.10298ZM140.378 14.9518C140.378 15.4027 140.448 15.8222 140.589 16.2105C140.73 16.5863 140.929 16.9119 141.185 17.1875C141.442 17.4505 141.756 17.6634 142.128 17.8262C142.5 17.9765 142.916 18.0517 143.378 18.0517C143.839 18.0517 144.256 17.9765 144.628 17.8262C145 17.6634 145.314 17.4505 145.57 17.1875C145.827 16.9119 146.025 16.5863 146.166 16.2105C146.308 15.8222 146.378 15.4027 146.378 14.9518C146.378 14.5009 146.308 14.0876 146.166 13.7118C146.025 13.3235 145.827 12.9979 145.57 12.7349C145.314 12.4593 145 12.2464 144.628 12.0961C144.256 11.9332 143.839 11.8519 143.378 11.8519C142.916 11.8519 142.5 11.9332 142.128 12.0961C141.756 12.2464 141.442 12.4593 141.185 12.7349C140.929 12.9979 140.73 13.3235 140.589 13.7118C140.448 14.0876 140.378 14.5009 140.378 14.9518ZM138.531 14.9518C138.531 14.3005 138.653 13.6931 138.897 13.1294C139.153 12.5658 139.499 12.0711 139.935 11.6452C140.371 11.2193 140.884 10.8875 141.474 10.6495C142.064 10.3991 142.698 10.2737 143.378 10.2737C144.057 10.2737 144.692 10.3991 145.282 10.6495C145.872 10.8875 146.385 11.2193 146.82 11.6452C147.256 12.0711 147.596 12.5658 147.84 13.1294C148.096 13.6931 148.225 14.3005 148.225 14.9518C148.225 15.6031 148.096 16.2168 147.84 16.793C147.596 17.3566 147.256 17.8513 146.82 18.2772C146.385 18.6905 145.872 19.0224 145.282 19.2729C144.692 19.5109 144.057 19.6298 143.378 19.6298C142.698 19.6298 142.064 19.5109 141.474 19.2729C140.884 19.0224 140.371 18.6905 139.935 18.2772C139.499 17.8513 139.153 17.3566 138.897 16.793C138.653 16.2168 138.531 15.6031 138.531 14.9518ZM155.239 12.7349C155.034 12.4844 154.778 12.2778 154.47 12.1149C154.175 11.9396 153.81 11.8519 153.375 11.8519C152.964 11.8519 152.604 11.9396 152.297 12.1149C152.002 12.2778 151.854 12.522 151.854 12.8476C151.854 13.1107 151.938 13.3235 152.104 13.4864C152.284 13.6493 152.489 13.7808 152.72 13.8809C152.964 13.9811 153.22 14.0562 153.489 14.1064C153.759 14.1565 153.989 14.2003 154.181 14.2379C154.553 14.3256 154.9 14.432 155.22 14.5573C155.554 14.6826 155.836 14.8453 156.067 15.0457C156.31 15.2462 156.496 15.4904 156.625 15.7784C156.765 16.0665 156.837 16.4172 156.837 16.8305C156.837 17.3316 156.727 17.7637 156.509 18.1269C156.29 18.4776 156.009 18.7656 155.663 18.9911C155.316 19.2165 154.918 19.3793 154.47 19.4795C154.035 19.5798 153.591 19.6298 153.143 19.6298C152.387 19.6298 151.72 19.5171 151.143 19.2917C150.579 19.0662 150.072 18.6529 149.624 18.0517L150.931 16.9996C151.213 17.2752 151.528 17.5194 151.874 17.7323C152.22 17.9452 152.643 18.0517 153.143 18.0517C153.362 18.0517 153.578 18.0329 153.797 17.9953C154.028 17.9452 154.227 17.8764 154.393 17.7887C154.573 17.6885 154.714 17.5695 154.817 17.4317C154.931 17.2814 154.99 17.1123 154.99 16.9245C154.99 16.674 154.907 16.4674 154.739 16.3045C154.586 16.1416 154.393 16.0165 154.162 15.9287C153.945 15.8286 153.707 15.7534 153.451 15.7033C153.207 15.6407 152.99 15.5906 152.797 15.553C152.425 15.4653 152.073 15.3651 151.739 15.2524C151.406 15.1397 151.111 14.9894 150.854 14.8015C150.598 14.6136 150.393 14.3756 150.239 14.0876C150.085 13.7996 150.008 13.4426 150.008 13.0167C150.008 12.5532 150.104 12.1525 150.297 11.8143C150.502 11.4636 150.765 11.1756 151.085 10.9501C151.419 10.7247 151.79 10.5556 152.201 10.4428C152.624 10.3301 153.047 10.2737 153.471 10.2737C154.085 10.2737 154.675 10.3865 155.239 10.6119C155.803 10.8374 156.253 11.2131 156.586 11.7392L155.239 12.7349ZM163.824 11.9646H161.343V16.0039C161.343 16.2543 161.35 16.5049 161.361 16.7554C161.374 16.9934 161.42 17.2125 161.496 17.4129C161.586 17.6008 161.715 17.7573 161.881 17.8826C162.06 17.9953 162.318 18.0517 162.65 18.0517C162.856 18.0517 163.068 18.0329 163.284 17.9953C163.503 17.9578 163.702 17.8888 163.881 17.7887V19.3293C163.676 19.442 163.406 19.5171 163.074 19.5547C162.753 19.6049 162.504 19.6298 162.323 19.6298C161.656 19.6298 161.138 19.542 160.766 19.3668C160.406 19.1789 160.137 18.9409 159.958 18.6529C159.792 18.3649 159.689 18.0455 159.65 17.6948C159.625 17.3316 159.612 16.9683 159.612 16.6051V11.9646H157.611V10.4992H159.612V8.00048H161.343V10.4992H163.824V11.9646ZM166.192 10.4992H167.923V19.4044H166.192V10.4992ZM165.788 7.30535C165.788 6.96718 165.91 6.67911 166.153 6.44113C166.409 6.19066 166.71 6.06539 167.058 6.06539C167.403 6.06539 167.698 6.19066 167.941 6.44113C168.198 6.67911 168.326 6.96718 168.326 7.30535C168.326 7.64352 168.198 7.93788 167.941 8.18835C167.698 8.42633 167.403 8.54531 167.058 8.54531C166.71 8.54531 166.409 8.42633 166.153 8.18835C165.91 7.93788 165.788 7.64352 165.788 7.30535ZM170.677 10.4992H172.408V11.8707H172.446C172.664 11.3948 173.042 11.0127 173.582 10.7247C174.12 10.4241 174.742 10.2737 175.446 10.2737C175.883 10.2737 176.299 10.3427 176.697 10.4804C177.107 10.6057 177.459 10.806 177.755 11.0816C178.062 11.3572 178.305 11.7142 178.486 12.1525C178.665 12.5784 178.755 13.0856 178.755 13.6743V19.4044H177.024V14.1439C177.024 13.7306 176.965 13.3799 176.851 13.0918C176.736 12.7913 176.581 12.5532 176.389 12.3779C176.196 12.1901 175.973 12.0586 175.716 11.9834C175.473 11.8957 175.217 11.8519 174.946 11.8519C174.587 11.8519 174.255 11.9083 173.947 12.021C173.639 12.1337 173.37 12.3154 173.139 12.5658C172.909 12.8038 172.728 13.1107 172.601 13.4864C172.472 13.8621 172.408 14.3068 172.408 14.8203V19.4044H170.677V10.4992ZM190.5 19.3293C190.5 20.0055 190.378 20.6193 190.133 21.1704C189.903 21.734 189.569 22.2164 189.134 22.617C188.697 23.0305 188.173 23.3497 187.556 23.5751C186.942 23.8005 186.262 23.9135 185.517 23.9135C184.647 23.9135 183.845 23.7945 183.113 23.5564C182.396 23.3183 181.71 22.9051 181.057 22.3164L182.23 20.8885C182.678 21.3645 183.166 21.7215 183.69 21.9594C184.217 22.2099 184.813 22.3353 185.48 22.3353C186.12 22.3353 186.654 22.2413 187.076 22.0534C187.5 21.878 187.832 21.6464 188.076 21.3583C188.332 21.0701 188.512 20.7382 188.614 20.3625C188.717 19.9993 188.769 19.6298 188.769 19.2541V17.939H188.71C188.378 18.4776 187.922 18.8784 187.345 19.1414C186.781 19.3917 186.186 19.5171 185.557 19.5171C184.89 19.5171 184.268 19.4044 183.69 19.1789C183.126 18.9409 182.639 18.6215 182.23 18.2208C181.819 17.8075 181.498 17.3252 181.268 16.7742C181.037 16.2105 180.921 15.6031 180.921 14.9518C180.921 14.3005 181.03 13.6931 181.249 13.1294C181.467 12.5532 181.774 12.0523 182.171 11.6264C182.582 11.2005 183.069 10.8687 183.633 10.6307C184.21 10.3927 184.851 10.2737 185.557 10.2737C186.173 10.2737 186.768 10.4053 187.345 10.6683C187.935 10.9313 188.397 11.3009 188.73 11.7767H188.769V10.4992H190.5V19.3293ZM185.768 11.8519C185.307 11.8519 184.89 11.9332 184.518 12.0961C184.147 12.2464 183.832 12.4593 183.576 12.7349C183.319 12.9979 183.12 13.3235 182.98 13.7118C182.838 14.0876 182.768 14.5009 182.768 14.9518C182.768 15.8536 183.037 16.5801 183.576 17.1311C184.114 17.6698 184.844 17.939 185.768 17.939C186.691 17.939 187.423 17.6698 187.961 17.1311C188.499 16.5801 188.769 15.8536 188.769 14.9518C188.769 14.5009 188.697 14.0876 188.557 13.7118C188.415 13.3235 188.216 12.9979 187.961 12.7349C187.705 12.4593 187.39 12.2464 187.019 12.0961C186.647 11.9332 186.23 11.8519 185.768 11.8519Z" fill="white"/>
<path fill-rule="evenodd" clip-rule="evenodd" d="M10.1865 9.40869L0.5 12.0315L10.1865 15.2837L19.8731 12.0315L10.1865 9.40869ZM11.5856 12.2414C11.5856 12.5312 10.9592 12.766 10.1865 12.766C9.41372 12.766 8.7873 12.5312 8.7873 12.2414C8.7873 11.9517 9.41372 11.7169 10.1865 11.7169C10.9592 11.7169 11.5856 11.9517 11.5856 12.2414Z" fill="#888B8C"/>
<path fill-rule="evenodd" clip-rule="evenodd" d="M6.61704 8.56973C7.39464 9.69972 8.61161 10.9235 10.1863 12.241C11.761 10.9235 12.8964 9.69972 13.6739 8.56973C14.4515 7.43974 14.8403 6.39392 14.8403 5.43222C14.8403 3.98968 14.3684 2.84044 13.4245 1.98455C12.4806 1.12865 11.3877 0.700684 10.1455 0.700684C8.90333 0.700684 7.81032 1.12865 6.86647 1.98455C5.92261 2.84044 5.45068 3.98968 5.45068 5.43222C5.45068 6.39392 5.83946 7.43974 6.61704 8.56973ZM12.4466 5.31678C12.4466 6.53355 11.4347 7.51994 10.1864 7.51994C8.93819 7.51994 7.92626 6.53355 7.92626 5.31678C7.92626 4.10002 8.93819 3.11363 10.1864 3.11363C11.4347 3.11363 12.4466 4.10002 12.4466 5.31678Z" fill="#ECB44B"/>
<path fill-rule="evenodd" clip-rule="evenodd" d="M19.8736 20.0044L10.187 23.1516L0.500488 20.0044V23.1731L10.187 26.2991L19.8736 23.1731V20.0044ZM13.9539 23.9384C14.162 23.9384 14.3306 23.774 14.3306 23.5712C14.3306 23.3684 14.162 23.2039 13.9539 23.2039C13.7459 23.2039 13.5772 23.3684 13.5772 23.5712C13.5772 23.774 13.7459 23.9384 13.9539 23.9384ZM13.2544 23.886C13.2544 24.0888 13.0857 24.2532 12.8777 24.2532C12.6696 24.2532 12.501 24.0888 12.501 23.886C12.501 23.6832 12.6696 23.5187 12.8777 23.5187C13.0857 23.5187 13.2544 23.6832 13.2544 23.886ZM11.6936 24.6729C11.9017 24.6729 12.0703 24.5085 12.0703 24.3057C12.0703 24.1029 11.9017 23.9386 11.6936 23.9386C11.4856 23.9386 11.317 24.1029 11.317 24.3057C11.317 24.5085 11.4856 24.6729 11.6936 24.6729ZM16.5168 22.1339C16.2543 22.2183 16.1115 22.4941 16.1982 22.75C16.2849 23.0057 16.568 23.1448 16.8307 23.0603L18.6692 22.4695C18.932 22.385 19.0747 22.1091 18.988 21.8534C18.9013 21.5974 18.6181 21.4586 18.3555 21.543L16.5168 22.1339Z" fill="#ECB44B"/>
<path fill-rule="evenodd" clip-rule="evenodd" d="M19.8736 16.3325L10.187 19.4799L0.500488 16.3325V19.5012L10.187 22.6272L19.8736 19.5012V16.3325ZM13.9539 20.2667C14.162 20.2667 14.3306 20.1023 14.3306 19.8995C14.3306 19.6967 14.162 19.5324 13.9539 19.5324C13.7459 19.5324 13.5772 19.6967 13.5772 19.8995C13.5772 20.1023 13.7459 20.2667 13.9539 20.2667ZM13.2544 20.2141C13.2544 20.4169 13.0857 20.5813 12.8777 20.5813C12.6696 20.5813 12.501 20.4169 12.501 20.2141C12.501 20.0113 12.6696 19.847 12.8777 19.847C13.0857 19.847 13.2544 20.0113 13.2544 20.2141ZM11.6936 21.0012C11.9017 21.0012 12.0703 20.8367 12.0703 20.6339C12.0703 20.4311 11.9017 20.2667 11.6936 20.2667C11.4856 20.2667 11.317 20.4311 11.317 20.6339C11.317 20.8367 11.4856 21.0012 11.6936 21.0012ZM16.556 18.4228C16.2933 18.5071 16.1506 18.783 16.2373 19.0388C16.3239 19.2947 16.6072 19.4337 16.8697 19.3493L18.7085 18.7582C18.971 18.6738 19.1137 18.3981 19.0271 18.1421C18.9404 17.8864 18.6573 17.7474 18.3946 17.8318L16.556 18.4228Z" fill="#57A0C7"/>
<path fill-rule="evenodd" clip-rule="evenodd" d="M19.8731 12.6606L10.1865 15.8081L0.5 12.6606V15.8294L10.1865 18.9553L19.8731 15.8294V12.6606ZM13.9534 16.5947C14.1615 16.5947 14.3301 16.4304 14.3301 16.2276C14.3301 16.0248 14.1615 15.8604 13.9534 15.8604C13.7454 15.8604 13.5767 16.0248 13.5767 16.2276C13.5767 16.4304 13.7454 16.5947 13.9534 16.5947ZM13.2539 16.5424C13.2539 16.7452 13.0852 16.9096 12.8772 16.9096C12.6692 16.9096 12.5005 16.7452 12.5005 16.5424C12.5005 16.3396 12.6692 16.1751 12.8772 16.1751C13.0852 16.1751 13.2539 16.3396 13.2539 16.5424ZM11.6932 17.3292C11.9012 17.3292 12.0699 17.1647 12.0699 16.9619C12.0699 16.7591 11.9012 16.5948 11.6932 16.5948C11.4851 16.5948 11.3165 16.7591 11.3165 16.9619C11.3165 17.1647 11.4851 17.3292 11.6932 17.3292ZM16.5555 14.816C16.2928 14.9003 16.1501 15.1762 16.2368 15.432C16.3234 15.6879 16.6067 15.8269 16.8692 15.7425L18.708 15.1515C18.9705 15.067 19.1132 14.7913 19.0266 14.5355C18.9399 14.2796 18.6568 14.1406 18.3941 14.225L16.5555 14.816Z" fill="#888B8C"/>
</svg>
