<svg width="27" height="26" viewBox="0 0 27 26" fill="none" xmlns="http://www.w3.org/2000/svg">
<path d="M19.1389 5.80148L14.4708 1M19.1389 5.80148V8.46896M19.1389 5.80148H15.4708C14.9185 5.80148 14.4708 5.35376 14.4708 4.80147V1M14.4708 1H3C1.89543 1 1 1.89543 1 3V22.2071C1 23.3117 1.89543 24.2071 3 24.2071H17.1389C18.2435 24.2071 19.1389 23.3117 19.1389 22.2071V20" stroke="white" stroke-width="2" stroke-linecap="round"/>
<path d="M5 4.96973H9" stroke="white" stroke-width="2" stroke-linecap="round"/>
<path d="M5 20H9" stroke="white" stroke-width="2" stroke-linecap="round"/>
<path d="M5 10H14" stroke="white" stroke-width="2" stroke-linecap="round"/>
<path d="M5 15H12" stroke="white" stroke-width="2" stroke-linecap="round"/>
<path d="M23.7294 8.85359L25.4814 10.9415L15.4353 19.3712L12.9024 19.7131L13.6826 17.2839L23.7294 8.85359Z" stroke="white" stroke-width="2"/>
</svg>
