<svg width="24" height="25" viewBox="0 0 24 25" fill="none" xmlns="http://www.w3.org/2000/svg">
<circle cx="12" cy="12.207" r="11" stroke="white" stroke-width="2"/>
<path d="M8.5 6.65114C8.73252 6.45466 8.98556 6.26801 9.25911 6.09118C9.5395 5.91435 9.84041 5.76044 10.1618 5.62946C10.4833 5.49847 10.832 5.39696 11.2082 5.32492C11.5843 5.24633 11.9912 5.20703 12.4289 5.20703C13.0239 5.20703 13.5641 5.28562 14.0497 5.4428C14.5421 5.59998 14.9627 5.82593 15.3115 6.12065C15.6602 6.40881 15.9304 6.7592 16.1219 7.1718C16.3133 7.5844 16.4091 8.04612 16.4091 8.55696C16.4091 9.0547 16.3339 9.48695 16.1834 9.85371C16.033 10.2139 15.8415 10.5283 15.6089 10.7968C15.3833 11.0653 15.1371 11.2978 14.8704 11.4943C14.6036 11.6908 14.3506 11.8774 14.1112 12.0543C13.8719 12.2245 13.6633 12.3948 13.4855 12.5651C13.3145 12.7288 13.2119 12.9155 13.1778 13.1251L12.9418 14.5593H11.2082L11.0338 12.958C11.0269 12.9253 11.0235 12.8991 11.0235 12.8795C11.0235 12.8533 11.0235 12.8238 11.0235 12.791C11.0235 12.5029 11.0988 12.254 11.2492 12.0444C11.3997 11.8283 11.5877 11.6286 11.8134 11.4452C12.0391 11.2552 12.2819 11.0719 12.5417 10.895C12.8016 10.7182 13.0444 10.5283 13.2701 10.3253C13.4958 10.1157 13.6838 9.87991 13.8343 9.61794C13.9847 9.35597 14.06 9.04816 14.06 8.6945C14.06 8.45872 14.0121 8.24915 13.9163 8.06577C13.8274 7.87584 13.7009 7.71539 13.5368 7.5844C13.3727 7.44687 13.1743 7.34208 12.9418 7.27004C12.7161 7.198 12.4699 7.16198 12.2032 7.16198C11.8134 7.16198 11.4817 7.20455 11.2082 7.28969C10.9415 7.36828 10.7124 7.45997 10.5209 7.56475C10.3362 7.66299 10.1789 7.75468 10.049 7.83982C9.91905 7.91841 9.80279 7.95771 9.70021 7.95771C9.45401 7.95771 9.27621 7.85947 9.16678 7.66299L8.5 6.65114ZM10.4388 18.2335C10.4388 18.0304 10.4764 17.8372 10.5516 17.6538C10.6337 17.4705 10.7431 17.3133 10.8799 17.1823C11.0235 17.0513 11.1911 16.9465 11.3826 16.8679C11.574 16.7893 11.7792 16.7501 11.9981 16.7501C12.2101 16.7501 12.4118 16.7893 12.6033 16.8679C12.7948 16.9465 12.9589 17.0513 13.0957 17.1823C13.2325 17.3133 13.3419 17.4705 13.4239 17.6538C13.506 17.8372 13.547 18.0304 13.547 18.2335C13.547 18.443 13.506 18.6395 13.4239 18.8229C13.3419 18.9997 13.2325 19.1536 13.0957 19.2846C12.9589 19.4156 12.7948 19.5171 12.6033 19.5891C12.4118 19.6677 12.2101 19.707 11.9981 19.707C11.7792 19.707 11.574 19.6677 11.3826 19.5891C11.1911 19.5171 11.0235 19.4156 10.8799 19.2846C10.7431 19.1536 10.6337 18.9997 10.5516 18.8229C10.4764 18.6395 10.4388 18.443 10.4388 18.2335Z" fill="white"/>
</svg>
