<svg width="25" height="26" viewBox="0 0 25 26" fill="none" xmlns="http://www.w3.org/2000/svg">
<rect x="1" y="10.2305" width="22.1538" height="5.53842" rx="2" stroke="white" stroke-width="2"/>
<rect x="14.8457" y="12.0767" width="5.53846" height="1.84614" rx="0.92307" fill="white"/>
<ellipse cx="4.69261" cy="13.0002" rx="0.923077" ry="0.92307" fill="white"/>
<ellipse cx="7.46165" cy="12.9997" rx="0.923077" ry="0.92307" fill="white"/>
<ellipse cx="10.2312" cy="12.9997" rx="0.923077" ry="0.92307" fill="white"/>
<rect x="1" y="1" width="22.1538" height="5.53842" rx="2" stroke="white" stroke-width="2"/>
<rect x="14.8457" y="2.8457" width="5.53846" height="1.84614" rx="0.92307" fill="white"/>
<ellipse cx="4.69261" cy="3.76877" rx="0.923077" ry="0.92307" fill="white"/>
<ellipse cx="7.46165" cy="3.76877" rx="0.923077" ry="0.92307" fill="white"/>
<ellipse cx="10.2312" cy="3.76877" rx="0.923077" ry="0.92307" fill="white"/>
<rect x="1" y="19.4614" width="22.1538" height="5.53842" rx="2" stroke="white" stroke-width="2"/>
<rect x="14.8457" y="21.3076" width="5.53846" height="1.84614" rx="0.92307" fill="white"/>
<ellipse cx="4.69261" cy="22.2307" rx="0.923077" ry="0.92307" fill="white"/>
<ellipse cx="7.46165" cy="22.2307" rx="0.923077" ry="0.92307" fill="white"/>
<ellipse cx="10.2312" cy="22.2307" rx="0.923077" ry="0.92307" fill="white"/>
</svg>
