<svg width="22" height="25" viewBox="0 0 22 25" fill="none" xmlns="http://www.w3.org/2000/svg">
<path d="M11.8711 10.3037C11.3188 10.3037 10.8711 10.7514 10.8711 11.3037C10.8711 11.856 11.3188 12.3037 11.8711 12.3037V10.3037ZM11.8711 11.3037V12.3037L20.6453 12.3037V11.3037V10.3037L11.8711 10.3037V11.3037Z" fill="white"/>
<path d="M18 7.20703L20.1 10.007C20.6333 10.7181 20.6333 11.6959 20.1 12.407L18 15.207" stroke="white" stroke-width="2" stroke-linecap="round"/>
<path d="M15 6.70703V3.70703C15 2.60246 14.1046 1.70703 13 1.70703H2" stroke="white" stroke-width="2" stroke-linecap="round"/>
<path d="M15 15.707V18.707C15 19.8116 14.1046 20.707 13 20.707H9" stroke="white" stroke-width="2" stroke-linecap="round"/>
<path d="M1 2.90918C1.0001 2.23733 1.64943 1.75691 2.29199 1.95312L8.09863 3.72656C8.51918 3.85505 8.80664 4.24386 8.80664 4.68359V21.3965C8.80649 22.0841 8.12814 22.5662 7.47852 22.3408L1.67188 20.3262C1.26972 20.1864 1 19.8076 1 19.3818V2.90918Z" stroke="white" stroke-width="2"/>
</svg>
